PathFileType	4	(X/Y/Z)	C:\Users\Basilio\Documents\Thesis Gigler\squatting_fais\c3dfiles\019\SLS_back_pre4\markers_experimental.trc
DataRate	CameraRate	NumFrames	NumMarkers	Units	OrigDataRate	OrigDataStartFrame	OrigNumFrames
200.000000	200.000000	4	59	mm	200.000000	1047	1397
Frame#	Time	FHD			LBHD			RBHD			C7			T10			CLAV			LSHO			LUUPA			LMUPA			LDUPA			LLEP			LMEP			LRAD			LUL			LRFIN			RSHO			RUPA1			RMUPA			RDUPA			RLEP			RMEP			RRAD			RUL			RUFIN			LASI			RASI			USACR			LSACR			RSACR			LTHI1			LTHI2			LTHI3			LTHI4			LLFC			LTIB1			LTIB2			LTIB3			LTIB4			LLMAL			LMMAL			LHEE			LMT1			LMT2			LMT5			RTHI2			RTHI4			RLFC			RTIB1			RTIB2			RTIB3			RTIB4			RLMAL			RMMAL			RHEE			RMT1			RMT2			RMT5			RTHI3			RTHI			
		X1	Y1	Z1	X2	Y2	Z2	X3	Y3	Z3	X4	Y4	Z4	X5	Y5	Z5	X6	Y6	Z6	X7	Y7	Z7	X8	Y8	Z8	X9	Y9	Z9	X10	Y10	Z10	X11	Y11	Z11	X12	Y12	Z12	X13	Y13	Z13	X14	Y14	Z14	X15	Y15	Z15	X16	Y16	Z16	X17	Y17	Z17	X18	Y18	Z18	X19	Y19	Z19	X20	Y20	Z20	X21	Y21	Z21	X22	Y22	Z22	X23	Y23	Z23	X24	Y24	Z24	X25	Y25	Z25	X26	Y26	Z26	X27	Y27	Z27	X28	Y28	Z28	X29	Y29	Z29	X30	Y30	Z30	X31	Y31	Z31	X32	Y32	Z32	X33	Y33	Z33	X34	Y34	Z34	X35	Y35	Z35	X36	Y36	Z36	X37	Y37	Z37	X38	Y38	Z38	X39	Y39	Z39	X40	Y40	Z40	X41	Y41	Z41	X42	Y42	Z42	X43	Y43	Z43	X44	Y44	Z44	X45	Y45	Z45	X46	Y46	Z46	X47	Y47	Z47	X48	Y48	Z48	X49	Y49	Z49	X50	Y50	Z50	X51	Y51	Z51	X52	Y52	Z52	X53	Y53	Z53	X54	Y54	Z54	X55	Y55	Z55	X56	Y56	Z56	X57	Y57	Z57	X58	Y58	Z58	X59	Y59	Z59	

1048	5.235	-94.49999237060548	1641.037475585938	-633.8704223632814	-229.0419006347657	1621.033569335938	-773.7498168945315	-229.3951721191407	1613.53369140625	-633.9006958007814	-277.9101257324219	1464.117553710938	-701.1519775390626	-394.8839721679689	1202.533081054688	-712.7114257812501	-155.345932006836	1388.035766601563	-708.1193237304689	-189.7950286865235	1462.4423828125	-835.0228271484377	-71.3751678466797	1408.05517578125	-891.3782348632815	-48.37434387207033	1397.381103515625	-848.8589477539065	-6.96678686141968	1389.969116210938	-892.5002441406252	55.58043670654298	1341.201782226563	-921.4594726562502	41.2707633972168	1286.5751953125	-903.1223144531252	293.1348266601563	1333.527221679688	-838.5452880859377	297.1925354003907	1282.081909179688	-879.8212890625002	366.3176574707032	1345.619506835938	-844.005065917969	-187.5008239746094	1449.864501953125	-588.2899780273439	-76.12703704833986	1367.817993164063	-488.6492309570314	-50.10985183715822	1391.669921875	-521.7763061523439	-11.70014095306397	1351.3310546875	-495.6693725585939	64.44076538085939	1334.556640625	-510.3189086914064	48.21773529052736	1283.000610351563	-530.4495239257814	295.0935363769532	1371.754150390625	-602.9634399414064	313.6287841796876	1316.503662109375	-560.6245727539064	381.1627197265626	1385.215576171875	-593.1038818359376	-333.8163452148438	973.350036621094	-850.6912841796877	-310.4680786132813	952.3293457031252	-649.0594482421876	-449.3216247558595	1076.731323242188	-726.0661621093751	-468.3481445312501	1051.252807617188	-754.7314453125001	-460.4246520996095	1045.726318359375	-698.3411865234376	-364.7133789062501	738.1395874023439	-946.4893798828127	-305.3527526855469	675.7401123046876	-954.3982543945315	-262.4179687500001	689.0141601562501	-938.1602783203127	-315.4425964355469	615.2113647460939	-948.4961547851565	-306.0388488769532	534.8187866210939	-933.1416625976565	-391.1184997558595	435.2666625976564	-884.4752197265627	-453.4739379882814	469.7440795898439	-935.3762207031252	-443.3570861816407	437.6609497070314	-908.6578369140627	-515.9191284179689	421.4694824218751	-863.258483886719	-662.8472900390626	458.2490539550782	-879.2879638671877	-638.2106933593751	454.7787475585939	-796.481140136719	-705.9687500000001	517.4370727539064	-831.669372558594	-684.9225463867189	311.9571533203126	-779.9442138671877	-694.2206420898439	301.0408630371094	-817.0774536132815	-732.6982421875001	331.2807922363282	-867.0371704101565	-292.9209289550782	729.7968750000001	-586.9367675781251	-292.0080566406251	649.4137573242189	-590.6401977539064	-286.5009155273438	494.0989379882814	-635.9940795898439	-267.5250244140626	319.5906677246094	-712.3960571289064	-331.4315795898438	243.3486785888672	-662.9802856445314	-299.5514526367188	239.8320007324219	-697.4321289062501	-316.2711181640626	204.890365600586	-741.6436157226564	-388.2288818359376	126.3909454345703	-704.7572631835939	-372.6615905761719	136.812240600586	-780.2563476562502	-455.8161621093751	105.770004272461	-759.6564331054689	-257.4012451171876	57.32777023315431	-786.261413574219	-252.4779663085938	59.04465866088869	-740.5916137695314	-292.3236389160157	46.84026718139649	-685.9880981445314	-270.9839782714844	744.8001098632814	-610.0147094726564	-345.5166320800782	768.094177246094	-575.5823974609376	
1049	5.24	-95.00469970703126	1644.398193359375	-633.7734985351564	-230.0057678222657	1624.692749023438	-773.4481201171877	-230.0420227050782	1616.858154296875	-633.7684936523439	-278.2086181640626	1467.004516601563	-701.1288452148439	-394.7493286132814	1205.31689453125	-712.3352050781251	-155.6805572509766	1391.574584960938	-707.9547119140626	-189.5032958984375	1465.784301757813	-834.4058837890627	-72.06459045410158	1411.0458984375	-891.4043579101565	-49.44790267944337	1400.271850585938	-848.7766113281252	-7.796816349029543	1392.783813476563	-892.564147949219	54.75880050659181	1343.727661132813	-921.3905029296877	40.2923698425293	1289.122924804688	-902.9451904296877	292.3403320312501	1335.600341796875	-838.2145996093752	296.3262634277344	1284.261962890625	-879.4384765625002	365.3943481445313	1347.792602539063	-843.6331787109377	-187.248275756836	1455.216674804688	-586.8679809570314	-77.15496826171876	1370.760131835938	-488.6858215332032	-50.56299209594728	1394.184326171875	-521.6620483398439	-12.59549522399903	1354.103149414063	-495.484588623047	63.66950988769533	1337.295532226563	-510.1687927246095	47.51489639282227	1286.08251953125	-529.7929687500001	294.5009765625001	1374.275268554688	-602.5472412109376	312.8567504882813	1319.13427734375	-560.2316284179689	381.8298339843751	1386.145263671875	-592.7117919921876	-333.0190429687501	976.549743652344	-850.7271118164065	-309.2063903808594	954.8819580078127	-649.0233764648439	-448.452362060547	1079.283935546875	-725.7442016601564	-466.671600341797	1053.56201171875	-754.6564331054689	-459.2727966308595	1047.986083984375	-698.0791625976564	-363.3088989257813	740.9167480468751	-946.7531738281252	-304.9310607910157	679.4177856445314	-955.591491699219	-261.4198303222657	692.2592163085939	-938.4797363281252	-314.3104858398438	618.2832641601564	-948.8972778320315	-304.6752319335938	537.6630249023439	-933.6495361328127	-389.6406555175782	438.4007568359376	-884.2387695312502	-452.3821105957032	472.6018371582032	-935.4501953125002	-442.1132202148439	440.536834716797	-909.100524902344	-514.5168457031251	424.0636291503907	-863.462585449219	-661.1941528320314	460.4199218750001	-878.8880615234377	-636.4526977539064	456.878875732422	-796.224792480469	-704.3771362304689	519.5781860351564	-831.136169433594	-683.0816650390626	314.1593017578126	-779.9334716796877	-692.6251220703126	303.3170471191407	-817.0574951171877	-731.3048706054689	333.5650634765626	-866.894470214844	-292.4253234863282	734.4855346679689	-587.1385498046876	-293.0630187988282	650.8620605468751	-590.9832153320314	-288.8993835449219	495.0748291015626	-636.1248168945314	-269.0158691406251	320.6545410156251	-712.3707275390626	-332.6981506347657	244.1027374267579	-663.0728149414064	-300.7504577636719	240.7423400878907	-697.3179321289064	-316.8547973632813	205.9066619873047	-742.1369628906251	-388.4717712402345	126.5535659790039	-704.8623046875001	-372.8530273437501	136.8860931396485	-780.2529296875002	-455.6680603027345	105.6359634399414	-759.7002563476564	-257.4342651367188	57.36462783813478	-786.2193603515627	-252.4954833984376	59.09280014038087	-740.6129760742189	-292.3208923339844	46.83992767333985	-685.9499511718751	-271.0277709960938	745.8977661132814	-610.4179077148439	-345.0197143554688	769.9492797851565	-575.8294677734376	
1050	5.245	-95.4648895263672	1647.433837890625	-633.4039306640626	-230.6880187988282	1628.103881835938	-773.3211059570315	-230.6004486083985	1620.340087890625	-633.5026855468751	-278.9628295898438	1470.105224609375	-700.9831542968751	-394.4931030273439	1207.933837890625	-712.0572509765626	-156.11474609375	1395.167602539063	-707.8200073242189	-190.0857849121094	1469.008544921875	-834.3814697265627	-72.85985565185548	1413.915405273438	-891.4547119140627	-49.5986785888672	1403.1865234375	-848.7756347656252	-8.575940132141115	1395.550903320313	-892.630554199219	53.92881393432619	1346.25048828125	-921.3864746093752	39.31739044189454	1291.734497070313	-902.7244873046877	291.3365783691407	1337.845092773438	-838.0371093750002	295.1875610351563	1286.406372070313	-879.0828857421877	364.5514221191407	1349.876586914063	-843.4427490234377	-188.6376342773438	1458.574340820313	-587.1983032226564	-77.81780242919923	1373.86474609375	-488.429901123047	-51.27537536621095	1397.09326171875	-521.4377441406251	-13.19437980651856	1356.803344726563	-495.2340698242189	62.7894859313965	1339.79345703125	-510.1776733398439	46.51083755493165	1288.689208984375	-529.2514038085939	293.8889770507813	1376.668212890625	-602.0963745117189	312.0315856933594	1321.53955078125	-559.7636108398439	381.1227111816407	1387.338012695313	-591.8670043945314	-331.7823486328126	979.471862792969	-850.6947021484377	-307.9393005371094	957.5391235351565	-648.9866943359376	-447.7031860351564	1081.524658203125	-725.5220947265626	-466.6926879882814	1056.017822265625	-754.3201293945314	-458.3397827148439	1050.166015625	-697.7020874023439	-362.0672302246094	743.8131713867189	-946.9262695312502	-303.4269409179688	682.1001586914064	-955.9294433593752	-259.9996643066407	695.0206909179689	-938.9277954101565	-312.8972778320313	621.0073852539064	-949.280212402344	-303.3079528808594	540.4338378906251	-934.1638183593752	-388.205780029297	441.1913146972657	-884.6881103515627	-450.9096069335939	475.2861328125001	-935.7268066406252	-441.0714416503907	443.5829467773439	-909.648376464844	-512.8334350585939	426.5224914550782	-863.7885742187502	-659.8944091796876	462.8817749023439	-878.7905273437502	-634.8458251953126	459.3004150390626	-796.2064208984377	-702.6385498046876	521.7919311523439	-830.640808105469	-681.3269042968751	316.2327575683594	-779.9124755859377	-690.8032226562501	305.4703369140626	-816.9576416015627	-729.5397949218751	335.7647094726563	-866.5660400390627	-292.3523559570313	735.8152465820314	-587.5444946289064	-293.8254394531251	652.0741577148439	-591.3400268554689	-291.4507446289063	496.3699645996095	-636.3820190429689	-270.9316406250001	321.8462524414063	-712.3967895507814	-333.8989562988282	244.6007690429688	-663.1031494140626	-301.8063354492188	241.5956726074219	-697.1653442382814	-317.8221130371094	206.2773895263672	-741.2138671875001	-388.6990661621095	126.7191772460938	-704.8872680664064	-373.1138610839844	137.0870971679688	-780.2072753906252	-455.9842224121095	105.8535461425782	-759.6275634765626	-257.3979797363282	57.4027786254883	-786.2076416015627	-252.5000762939454	59.10472488403322	-740.5725097656251	-292.3641052246094	46.87504196166993	-685.9967651367189	-270.8577575683594	746.8715209960939	-610.8927001953126	-344.5165100097657	771.911804199219	-576.0402832031251	
1051	5.25	-96.00893402099612	1650.674072265625	-633.4155883789064	-230.5765838623047	1631.130859375	-773.1735839843752	-231.1230621337891	1623.3701171875	-633.3687744140626	-279.7713317871094	1473.385375976563	-700.8114624023439	-394.2203063964845	1210.522705078125	-711.7101440429689	-156.8125762939453	1398.604248046875	-707.8158569335939	-191.6354370117188	1472.091796875	-834.9885253906252	-73.46155548095705	1416.772094726563	-891.521179199219	-50.55317306518556	1406.062744140625	-848.9204711914065	-9.190016746520998	1398.19873046875	-892.5352783203127	53.07584381103517	1348.724365234375	-921.359802246094	38.49433517456055	1294.15673828125	-902.492126464844	290.5082702636719	1340.039672851563	-837.6721191406252	294.2050781250001	1288.525390625	-878.6688232421877	363.3675537109376	1352.01708984375	-843.0459594726565	-189.5043640136719	1461.375854492188	-586.8555297851564	-78.17381286621095	1376.94677734375	-487.8335571289064	-52.01368331909181	1399.816162109375	-521.1906127929689	-13.8244104385376	1359.549682617188	-495.012420654297	62.14116287231447	1342.39794921875	-509.843475341797	45.8144874572754	1291.63623046875	-528.4812622070314	293.3283691406251	1379.182373046875	-601.6896972656251	313.1576232910157	1327.696166992188	-558.8727416992189	381.4058837890626	1391.1884765625	-591.4505615234376	-330.5425109863282	982.367370605469	-850.6121826171877	-306.7188720703126	959.997985839844	-649.0584106445314	-446.7740173339845	1083.87451171875	-725.1867065429689	-465.2439575195314	1058.365234375	-754.0760498046876	-456.5128479003907	1052.131591796875	-697.6014404296876	-360.8840026855469	746.7704467773439	-947.0794067382815	-301.8578796386719	684.5863037109376	-955.9969482421877	-258.5906982421876	697.7138061523439	-939.3518066406252	-311.6879882812501	623.9195556640626	-949.7144775390627	-302.3309020996094	543.3588256835939	-934.6516113281252	-386.8038024902345	443.664520263672	-885.2491455078127	-449.8198547363282	478.102020263672	-935.9654541015627	-439.3553771972657	445.8382873535157	-909.9119873046877	-511.4462890625001	428.9520568847657	-863.7680664062502	-658.5881347656251	465.4389038085939	-878.5471191406252	-633.0293579101564	461.3729553222657	-796.0390625000002	-701.2278442382814	524.0687866210939	-830.2399902343752	-679.5720825195314	318.3086853027344	-779.895446777344	-689.2713623046876	307.6611022949219	-817.101745605469	-728.3037719726564	338.1806030273438	-866.4667968750002	-292.2108154296876	737.1833496093751	-587.8645019531251	-294.7501220703126	653.4634399414064	-591.7390136718751	-294.0531616210938	497.5125732421876	-636.6315917968751	-272.4402160644532	322.7951049804688	-712.4411010742189	-335.0530395507813	245.3885040283204	-663.1232910156251	-302.8512268066407	242.3985748291016	-697.2440185546876	-318.4632568359376	206.8213043212891	-741.4332885742189	-388.960906982422	126.8628768920899	-704.8931884765626	-373.4978027343751	137.302001953125	-780.2639770507815	-455.9480285644532	105.9128112792969	-759.5949096679689	-257.4249267578126	57.45840454101564	-786.201599121094	-252.5277709960938	59.16759872436525	-740.4990234375001	-292.3761291503907	46.8834571838379	-686.0319824218751	-270.6280822753907	747.8297119140626	-611.3908081054689	-344.0175781250001	773.677185058594	-576.2935791015626	
